<svg width="66" height="66" viewBox="0 0 66 66" fill="none" xmlns="http://www.w3.org/2000/svg">
<rect y="13.8694" width="53.5821" height="53.5821" rx="10" transform="rotate(-15 0 13.8694)" fill="#0078FE" fill-opacity="0.08"/>
<path d="M42.7122 25.7938C44.9418 25.1964 46.2649 22.9047 45.6675 20.6751C45.0701 18.4455 42.7783 17.1224 40.5487 17.7198C38.3192 18.3172 36.996 20.6089 37.5934 22.8385C38.1909 25.0681 40.4826 26.3913 42.7122 25.7938Z" fill="#45B4FF"/>
<path fill-rule="evenodd" clip-rule="evenodd" d="M28.5952 22.145C29.264 22.0968 30.2782 22.1659 30.9665 22.942C32.4741 24.6422 32.1633 26.7254 31.6043 28.1188C31.2394 29.0278 30.6997 29.9358 29.9664 30.5999C29.8136 30.7394 29.498 31.007 29.0815 31.1187C28.3049 31.3267 27.4493 31.1771 26.7068 30.9029C26.6963 31.3366 26.7003 31.8088 26.7271 32.303C26.7727 33.2528 26.9121 34.1958 27.1434 35.1181C28.4074 34.3006 29.8353 33.9687 31.2392 34.3305C31.9628 33.3652 32.8763 32.5583 33.9234 31.9592C35.5117 31.0534 37.5781 30.5659 39.7725 31.3074C41.3447 31.8396 42.8041 33.2443 43.499 35.0228C44.2238 36.8764 44.1201 39.1436 42.5438 41.2871C41.4307 42.7993 39.389 43.8154 37.4447 44.5068C35.4326 45.2234 33.2301 45.6924 31.4939 45.9563C28.2761 46.4466 25.6428 46.217 23.7249 45.7662C22.4666 45.4696 20.743 45.0554 19.9304 43.9309C19.381 43.1683 19.189 42.1155 19.0313 41.2114C18.8262 40.0255 18.6964 38.511 18.759 36.8154C18.8832 33.4316 19.7751 29.2279 22.4463 25.4728C23.2677 24.3176 24.8887 23.3029 26.3185 22.7255C27.0556 22.428 27.8537 22.2001 28.5952 22.145Z" fill="#0078FE"/>
</svg>
