<svg width="23" height="24" viewBox="0 0 23 24" fill="none" xmlns="http://www.w3.org/2000/svg">
<path fill-rule="evenodd" clip-rule="evenodd" d="M5.11111 3.4685C5.11111 3.27045 5.11111 3.17078 5.04722 3.11328C4.98078 3.05578 4.88367 3.06856 4.68944 3.09411C3.25833 3.27684 2.25911 3.65123 1.49756 4.41406C-1.52323e-07 5.91034 0 8.32023 0 13.1387C0 17.9572 -1.52323e-07 20.3671 1.49756 21.8634C2.99511 23.3597 5.40372 23.3609 10.2222 23.3609H12.7778C17.5963 23.3609 20.0062 23.3609 21.5024 21.8634C22.9987 20.3658 23 17.9572 23 13.1387C23 8.32023 23 5.91034 21.5024 4.41406C20.7409 3.65123 19.7417 3.27684 18.3093 3.09411C18.1163 3.06856 18.0192 3.05578 17.9541 3.11328C17.8889 3.17078 17.8889 3.27045 17.8889 3.4685V6.11095C17.8889 6.61928 17.687 7.10679 17.3275 7.46624C16.9681 7.82568 16.4806 8.02762 15.9722 8.02762C15.4639 8.02762 14.9764 7.82568 14.6169 7.46624C14.2575 7.10679 14.0556 6.61928 14.0556 6.11095V3.29984C14.0556 3.11967 14.0556 3.02895 13.9993 2.974C13.9431 2.91906 13.8537 2.9165 13.6735 2.9165H9.32778C9.14633 2.9165 9.05689 2.9165 9.00067 2.974C8.94444 3.02895 8.94444 3.11967 8.94444 3.29984V6.11095C8.94444 6.61928 8.74251 7.10679 8.38307 7.46624C8.02362 7.82568 7.53611 8.02762 7.02778 8.02762C6.51945 8.02762 6.03193 7.82568 5.67249 7.46624C5.31304 7.10679 5.11111 6.61928 5.11111 6.11095V3.4685Z" fill="black" fill-opacity="0.1"/>
<path d="M7.02783 1V6.11111M15.9723 1V6.11111" stroke="black" stroke-width="0.5" stroke-linecap="round"/>
<path d="M5.75022 11.8613C6.10307 11.8613 6.38911 11.5752 6.38911 11.2224C6.38911 10.8695 6.10307 10.5835 5.75022 10.5835C5.39737 10.5835 5.11133 10.8695 5.11133 11.2224C5.11133 11.5752 5.39737 11.8613 5.75022 11.8613Z" fill="black"/>
<path d="M9.58322 11.8613C9.93607 11.8613 10.2221 11.5752 10.2221 11.2224C10.2221 10.8695 9.93607 10.5835 9.58322 10.5835C9.23038 10.5835 8.94434 10.8695 8.94434 11.2224C8.94434 11.5752 9.23038 11.8613 9.58322 11.8613Z" fill="black"/>
<path d="M13.4167 11.8613C13.7696 11.8613 14.0556 11.5752 14.0556 11.2224C14.0556 10.8695 13.7696 10.5835 13.4167 10.5835C13.0639 10.5835 12.7778 10.8695 12.7778 11.2224C12.7778 11.5752 13.0639 11.8613 13.4167 11.8613Z" fill="black"/>
<path d="M17.2502 11.8613C17.6031 11.8613 17.8891 11.5752 17.8891 11.2224C17.8891 10.8695 17.6031 10.5835 17.2502 10.5835C16.8974 10.5835 16.6113 10.8695 16.6113 11.2224C16.6113 11.5752 16.8974 11.8613 17.2502 11.8613Z" fill="black"/>
<path d="M5.75022 15.6943C6.10307 15.6943 6.38911 15.4082 6.38911 15.0554C6.38911 14.7025 6.10307 14.4165 5.75022 14.4165C5.39737 14.4165 5.11133 14.7025 5.11133 15.0554C5.11133 15.4082 5.39737 15.6943 5.75022 15.6943Z" fill="black"/>
<path d="M9.58322 15.6943C9.93607 15.6943 10.2221 15.4082 10.2221 15.0554C10.2221 14.7025 9.93607 14.4165 9.58322 14.4165C9.23038 14.4165 8.94434 14.7025 8.94434 15.0554C8.94434 15.4082 9.23038 15.6943 9.58322 15.6943Z" fill="black"/>
<path d="M13.4167 15.6943C13.7696 15.6943 14.0556 15.4082 14.0556 15.0554C14.0556 14.7025 13.7696 14.4165 13.4167 14.4165C13.0639 14.4165 12.7778 14.7025 12.7778 15.0554C12.7778 15.4082 13.0639 15.6943 13.4167 15.6943Z" fill="black"/>
<path d="M17.2502 15.6943C17.6031 15.6943 17.8891 15.4082 17.8891 15.0554C17.8891 14.7025 17.6031 14.4165 17.2502 14.4165C16.8974 14.4165 16.6113 14.7025 16.6113 15.0554C16.6113 15.4082 16.8974 15.6943 17.2502 15.6943Z" fill="black"/>
<path d="M5.75022 19.5278C6.10307 19.5278 6.38911 19.2417 6.38911 18.8889C6.38911 18.536 6.10307 18.25 5.75022 18.25C5.39737 18.25 5.11133 18.536 5.11133 18.8889C5.11133 19.2417 5.39737 19.5278 5.75022 19.5278Z" fill="black"/>
<path d="M9.58322 19.5278C9.93607 19.5278 10.2221 19.2417 10.2221 18.8889C10.2221 18.536 9.93607 18.25 9.58322 18.25C9.23038 18.25 8.94434 18.536 8.94434 18.8889C8.94434 19.2417 9.23038 19.5278 9.58322 19.5278Z" fill="black"/>
<path d="M13.4167 19.5278C13.7696 19.5278 14.0556 19.2417 14.0556 18.8889C14.0556 18.536 13.7696 18.25 13.4167 18.25C13.0639 18.25 12.7778 18.536 12.7778 18.8889C12.7778 19.2417 13.0639 19.5278 13.4167 19.5278Z" fill="black"/>
<path d="M17.2502 19.5278C17.6031 19.5278 17.8891 19.2417 17.8891 18.8889C17.8891 18.536 17.6031 18.25 17.2502 18.25C16.8974 18.25 16.6113 18.536 16.6113 18.8889C16.6113 19.2417 16.8974 19.5278 17.2502 19.5278Z" fill="black"/>
</svg>
