<svg width="33" height="33" viewBox="0 0 33 33" fill="none" xmlns="http://www.w3.org/2000/svg">
<path fill-rule="evenodd" clip-rule="evenodd" d="M12 0C5.37258 0 0 5.37257 0 12V20.4677C0 27.0952 5.37258 32.4677 12 32.4677H21C27.6274 32.4677 33 27.0952 33 20.4678V12C33 5.37258 27.6274 0 21 0H12ZM19.3168 8.71945C17.7467 8.18647 16.0491 8.15871 14.4624 8.64006C12.8757 9.1214 11.4796 10.0877 10.4703 11.4032C9.46094 12.7186 8.889 14.3173 8.83482 15.9745C8.78063 17.6317 9.24691 19.2642 10.1682 20.6429C11.0894 22.0215 12.4194 23.0769 13.9712 23.6608C15.5231 24.2448 17.2189 24.328 18.8205 23.8987C19.2206 23.7915 19.458 23.3802 19.3507 22.9801C19.2435 22.5801 18.8322 22.3427 18.4321 22.4499C17.1333 22.798 15.758 22.7305 14.4995 22.257C13.241 21.7834 12.1624 20.9275 11.4153 19.8094C10.6682 18.6914 10.2901 17.3674 10.334 16.0235C10.378 14.6795 10.8418 13.3831 11.6603 12.3163C12.4789 11.2494 13.6111 10.4658 14.8978 10.0755C16.1846 9.6851 17.5613 9.70762 18.8347 10.1398C20.108 10.5721 21.2139 11.3923 21.9971 12.4853C22.7804 13.5783 23.2016 14.8892 23.2015 16.2339V16.234L23.2017 17.4316V17.4316V17.4317C23.2016 17.7621 23.0704 18.079 22.8367 18.3126C22.6031 18.5463 22.2862 18.6775 21.9557 18.6775C21.6252 18.6775 21.3083 18.5463 21.0747 18.3126C20.841 18.0789 20.7097 17.762 20.7097 17.4316V13.8388C20.7097 13.4246 20.3739 13.0888 19.9597 13.0888C19.748 13.0888 19.5568 13.1765 19.4204 13.3176C18.7198 12.6795 17.7883 12.2905 16.7659 12.2905C14.588 12.2905 12.8224 14.0561 12.8224 16.234C12.8224 18.412 14.588 20.1776 16.7659 20.1776C17.9045 20.1776 18.9304 19.695 19.6503 18.9233C19.7545 19.0845 19.8762 19.2354 20.014 19.3733C20.529 19.8882 21.2274 20.1775 21.9557 20.1775C22.684 20.1775 23.3824 19.8882 23.8974 19.3733C24.4124 18.8583 24.7017 18.1599 24.7017 17.4316V17.4315L24.7015 16.2339V16.2339C24.7016 14.5758 24.1822 12.9594 23.2164 11.6116C22.2506 10.2638 20.8869 9.25242 19.3168 8.71945ZM14.3224 16.234C14.3224 14.8845 15.4164 13.7905 16.7659 13.7905C18.1155 13.7905 19.2095 14.8845 19.2095 16.234C19.2095 17.5836 18.1155 18.6776 16.7659 18.6776C15.4164 18.6776 14.3224 17.5836 14.3224 16.234Z" fill="#0078FE"/>
</svg>
