<svg width="32" height="32" viewBox="0 0 32 32" fill="none" xmlns="http://www.w3.org/2000/svg">
<path d="M16.0516 21.9871C19.3582 21.9871 22.0387 19.3066 22.0387 16C22.0387 12.6934 19.3582 10.0129 16.0516 10.0129C12.745 10.0129 10.0645 12.6934 10.0645 16C10.0645 19.3066 12.745 21.9871 16.0516 21.9871Z" fill="#0099FF"/>
<path d="M22.5548 0H9.44516C4.23226 0 0 4.23226 0 9.44516V22.4516C0 27.7677 4.23226 32 9.44516 32H22.4516C27.7677 32 32 27.7677 32 22.5548V9.44516C32 4.23226 27.7677 0 22.5548 0ZM16.0516 23.8452C11.6645 23.8452 8.20645 20.2839 8.20645 16C8.20645 11.7161 11.7161 8.15484 16.0516 8.15484C20.3355 8.15484 23.8452 11.7161 23.8452 16C23.8452 20.2839 20.3871 23.8452 16.0516 23.8452ZM26.8903 8.87742C26.3742 9.44516 25.6 9.75484 24.7226 9.75484C23.9484 9.75484 23.1742 9.44516 22.5548 8.87742C21.9871 8.30968 21.6774 7.5871 21.6774 6.70968C21.6774 5.83226 21.9871 5.16129 22.5548 4.54194C23.1226 3.92258 23.8452 3.6129 24.7226 3.6129C25.4968 3.6129 26.3226 3.92258 26.8903 4.49032C27.4065 5.16129 27.7677 5.93548 27.7677 6.76129C27.7161 7.5871 27.4065 8.30968 26.8903 8.87742Z" fill="#0099FF"/>
<path d="M24.7742 5.47097C24.1032 5.47097 23.5355 6.03871 23.5355 6.70968C23.5355 7.38064 24.1032 7.94839 24.7742 7.94839C25.4452 7.94839 26.0129 7.38064 26.0129 6.70968C26.0129 6.03871 25.4968 5.47097 24.7742 5.47097Z" fill="#0099FF"/>
</svg>
