<svg width="50" height="50" viewBox="0 0 50 50" fill="none" xmlns="http://www.w3.org/2000/svg">
<rect x="0.5" y="0.5" width="49" height="49" rx="24.5" fill="#F7F7F7"/>
<rect x="0.5" y="0.5" width="49" height="49" rx="24.5" stroke="#F5F5F5"/>
<path d="M25.0222 34.2408C22.498 34.2408 19.9738 33.84 17.5797 33.0383C16.6697 32.7242 15.9763 32.085 15.673 31.2508C15.3588 30.4167 15.4672 29.4958 15.9655 28.6725L17.2113 26.6033C17.4713 26.17 17.7097 25.3033 17.7097 24.7942V21.6633C17.7097 17.6333 20.9922 14.3508 25.0222 14.3508C29.0522 14.3508 32.3347 17.6333 32.3347 21.6633V24.7942C32.3347 25.2925 32.573 26.17 32.833 26.6142L34.068 28.6725C34.5338 29.4525 34.6205 30.395 34.3063 31.2508C33.9922 32.1067 33.3097 32.7567 32.4538 33.0383C30.0705 33.84 27.5463 34.2408 25.0222 34.2408ZM25.0222 15.9758C21.8913 15.9758 19.3347 18.5217 19.3347 21.6633V24.7942C19.3347 25.585 19.0097 26.755 18.6088 27.4375L17.363 29.5067C17.1247 29.9075 17.0597 30.33 17.2005 30.6875C17.3305 31.0558 17.6555 31.3375 18.0997 31.4892C22.628 33.0058 27.4272 33.0058 31.9555 31.4892C32.3455 31.3592 32.6488 31.0667 32.7897 30.6767C32.9305 30.2867 32.898 29.8642 32.6813 29.5067L31.4355 27.4375C31.0238 26.7333 30.7097 25.5742 30.7097 24.7833V21.6633C30.7097 18.5217 28.1638 15.9758 25.0222 15.9758Z" fill="#667085"/>
<path d="M27.037 16.2683C26.9612 16.2683 26.8853 16.2575 26.8095 16.2358C26.4953 16.1492 26.192 16.0842 25.8995 16.0408C24.9787 15.9217 24.0903 15.9867 23.2562 16.2358C22.9528 16.3333 22.6278 16.2358 22.422 16.0083C22.2162 15.7808 22.1512 15.4558 22.2703 15.1633C22.7145 14.0258 23.7978 13.2783 25.0328 13.2783C26.2678 13.2783 27.3512 14.015 27.7953 15.1633C27.9037 15.4558 27.8495 15.7808 27.6437 16.0083C27.4812 16.1817 27.2537 16.2683 27.037 16.2683Z" fill="#667085"/>
<path d="M25.0215 36.7108C23.949 36.7108 22.909 36.2775 22.1507 35.5191C21.3923 34.7608 20.959 33.7208 20.959 32.6483H22.584C22.584 33.2875 22.844 33.9158 23.299 34.3708C23.754 34.8258 24.3823 35.0858 25.0215 35.0858C26.3648 35.0858 27.459 33.9916 27.459 32.6483H29.084C29.084 34.8908 27.264 36.7108 25.0215 36.7108Z" fill="#667085"/>
<path d="M19 12C16.5 13.5 15.5 15.5 15 18" stroke="#667085" stroke-width="1.5" stroke-linecap="round"/>
<path d="M31 12C33.5 13.5 34.5 15.5 35 18" stroke="#667085" stroke-width="1.5" stroke-linecap="round"/>
</svg>
