<svg width="33" height="33" viewBox="0 0 33 33" fill="none" xmlns="http://www.w3.org/2000/svg">
<path fill-rule="evenodd" clip-rule="evenodd" d="M10.6017 0C4.74655 0 0 4.74655 0 10.6017V21.866C0 27.7212 4.74656 32.4677 10.6017 32.4677H22.3983C28.2535 32.4677 33 27.7212 33 21.866V10.6017C33 4.74655 28.2534 0 22.3983 0H10.6017ZM20.4178 15.7769C20.4943 15.8093 20.5701 15.8431 20.6452 15.8783C21.6997 16.3765 22.4713 17.1288 22.8755 18.0563C23.4399 19.3494 23.4912 21.4557 21.7798 23.1362C20.4727 24.4214 18.8855 25.0005 16.6336 25.0162H16.6227C14.09 24.9991 12.1427 24.161 10.8341 22.5252C9.66916 21.0696 9.06864 19.0449 9.04843 16.5057V16.4943C9.06864 13.9551 9.66916 11.9297 10.8341 10.4749C12.1427 8.83906 14.09 8.00093 16.6235 7.98389H16.6336C19.1713 8.00093 21.1418 8.83551 22.4886 10.4656C23.1526 11.2697 23.6413 12.2384 23.9517 13.3632L22.4951 13.7451C22.2389 12.8317 21.8506 12.0482 21.3352 11.4244C20.2843 10.1541 18.7007 9.50119 16.6285 9.48699C14.57 9.50189 13.0139 10.1505 12.0019 11.4152C11.0542 12.5996 10.5649 14.3107 10.5468 16.5C10.5649 18.6894 11.0542 20.3997 12.0019 21.5849C13.0139 22.8495 14.5707 23.4989 16.6285 23.5131C18.4835 23.4996 19.7112 23.066 20.7325 22.0625C21.8975 20.9178 21.8758 19.5133 21.5034 18.6582C21.284 18.1557 20.887 17.7377 20.3514 17.4198C20.2208 18.3757 19.9256 19.1343 19.4586 19.7198C18.8436 20.4905 17.9616 20.9128 16.8371 20.9731C15.9861 21.0185 15.1669 20.817 14.5318 20.404C13.7797 19.9164 13.3394 19.1684 13.2925 18.3005C13.1994 16.588 14.5816 15.3553 16.7303 15.2332C17.4441 15.1881 18.1607 15.2222 18.8667 15.3347C18.7794 14.8082 18.6026 14.3902 18.3377 14.0878C17.9746 13.6734 17.4124 13.4605 16.6682 13.4562H16.648C16.0497 13.4562 15.2384 13.6202 14.7216 14.3916L13.4787 13.5534C14.1709 12.5209 15.2954 11.9531 16.6473 11.9531H16.6776C18.9382 11.9673 20.2843 13.354 20.4178 15.7769ZM14.788 18.2182C14.8371 19.1081 15.8151 19.524 16.757 19.4714C17.6794 19.4218 18.726 19.0662 18.9043 16.8747C18.4257 16.7718 17.9003 16.7186 17.3373 16.7186C17.1665 16.7181 16.9923 16.7231 16.8147 16.7335C15.2658 16.8208 14.7519 17.5582 14.788 18.2182Z" fill="#0099FF"/>
</svg>
