<svg width="183" height="77" viewBox="0 0 183 77" fill="none" xmlns="http://www.w3.org/2000/svg">
<g filter="url(#filter0_b_107_48)">
<path d="M0 20C0 8.9543 8.9543 0 20 0H163C174.046 0 183 8.95431 183 20V57C183 68.0457 174.046 77 163 77H20C8.95431 77 0 68.0457 0 57V20Z" fill="black" fill-opacity="0.1"/>
</g>
<g filter="url(#filter1_b_107_48)">
<rect x="9" y="8" width="56" height="56" rx="20" fill="#0078FE" fill-opacity="0.08"/>
<rect x="9.5" y="8.5" width="55" height="55" rx="19.5" stroke="#0078FE"/>
</g>
<path d="M37 38L26.556 33.9025L27.2 49H24.4L25.072 33.3113L23 32.5L37 27L51 32.5L37 38ZM37 31.125C36.23 31.125 35.6 31.4275 35.6 31.8125C35.6 32.1975 36.23 32.5 37 32.5C37.77 32.5 38.4 32.1975 38.4 31.8125C38.4 31.4275 37.77 31.125 37 31.125ZM37 39.375L44.798 36.3088C45.792 37.6013 46.478 39.155 46.702 40.8462C46.282 40.7912 45.848 40.75 45.4 40.75C41.83 40.75 38.708 42.6337 37 45.4387C36.1326 44.0102 34.9026 42.8271 33.4303 42.0052C31.9579 41.1834 30.2935 40.7509 28.6 40.75C28.152 40.75 27.718 40.7912 27.298 40.8462C27.522 39.155 28.208 37.6013 29.202 36.3088L37 39.375Z" fill="#0078FE"/>
<path d="M85.1402 32V15.75L86.5652 17.225H81.4402V14.5H88.3902V32H85.1402ZM98.8867 32.25C97.4367 32.25 96.1784 32.0333 95.1117 31.6C94.0451 31.1667 93.2201 30.5583 92.6367 29.775C92.0534 28.975 91.7617 28.0417 91.7617 26.975C91.7617 25.9083 92.0451 25.0083 92.6117 24.275C93.1784 23.5417 93.9951 22.9833 95.0617 22.6C96.1284 22.2167 97.4034 22.025 98.8867 22.025C100.37 22.025 101.645 22.2167 102.712 22.6C103.795 22.9833 104.62 23.55 105.187 24.3C105.77 25.0333 106.062 25.925 106.062 26.975C106.062 28.0417 105.762 28.975 105.162 29.775C104.578 30.5583 103.745 31.1667 102.662 31.6C101.595 32.0333 100.337 32.25 98.8867 32.25ZM98.8867 29.7C100.087 29.7 101.037 29.45 101.737 28.95C102.437 28.45 102.787 27.7583 102.787 26.875C102.787 26.0083 102.437 25.325 101.737 24.825C101.037 24.325 100.087 24.075 98.8867 24.075C97.6867 24.075 96.7451 24.325 96.0617 24.825C95.3784 25.325 95.0367 26.0083 95.0367 26.875C95.0367 27.7583 95.3784 28.45 96.0617 28.95C96.7451 29.45 97.6867 29.7 98.8867 29.7ZM98.8867 23.725C97.5367 23.725 96.3784 23.55 95.4117 23.2C94.4451 22.8333 93.6951 22.3083 93.1617 21.625C92.6451 20.925 92.3867 20.0917 92.3867 19.125C92.3867 18.125 92.6534 17.2667 93.1867 16.55C93.7367 15.8167 94.5034 15.25 95.4867 14.85C96.4701 14.45 97.6034 14.25 98.8867 14.25C100.187 14.25 101.328 14.45 102.312 14.85C103.295 15.25 104.062 15.8167 104.612 16.55C105.162 17.2667 105.437 18.125 105.437 19.125C105.437 20.0917 105.17 20.925 104.637 21.625C104.12 22.3083 103.37 22.8333 102.387 23.2C101.403 23.55 100.237 23.725 98.8867 23.725ZM98.8867 21.725C99.9201 21.725 100.737 21.5083 101.337 21.075C101.937 20.625 102.237 20.025 102.237 19.275C102.237 18.4917 101.928 17.8833 101.312 17.45C100.695 17.0167 99.8867 16.8 98.8867 16.8C97.8867 16.8 97.0867 17.0167 96.4867 17.45C95.8867 17.8833 95.5867 18.4917 95.5867 19.275C95.5867 20.025 95.8784 20.625 96.4617 21.075C97.0617 21.5083 97.8701 21.725 98.8867 21.725ZM115.47 32.25C114.087 32.25 112.837 31.9 111.72 31.2C110.62 30.5 109.754 29.4833 109.12 28.15C108.487 26.8 108.17 25.1667 108.17 23.25C108.17 21.3333 108.487 19.7083 109.12 18.375C109.754 17.025 110.62 16 111.72 15.3C112.837 14.6 114.087 14.25 115.47 14.25C116.87 14.25 118.12 14.6 119.22 15.3C120.32 16 121.187 17.025 121.82 18.375C122.47 19.7083 122.795 21.3333 122.795 23.25C122.795 25.1667 122.47 26.8 121.82 28.15C121.187 29.4833 120.32 30.5 119.22 31.2C118.12 31.9 116.87 32.25 115.47 32.25ZM115.47 29.425C116.287 29.425 116.995 29.2083 117.595 28.775C118.195 28.325 118.662 27.6417 118.995 26.725C119.345 25.8083 119.52 24.65 119.52 23.25C119.52 21.8333 119.345 20.675 118.995 19.775C118.662 18.8583 118.195 18.1833 117.595 17.75C116.995 17.3 116.287 17.075 115.47 17.075C114.687 17.075 113.987 17.3 113.37 17.75C112.77 18.1833 112.295 18.8583 111.945 19.775C111.612 20.675 111.445 21.8333 111.445 23.25C111.445 24.65 111.612 25.8083 111.945 26.725C112.295 27.6417 112.77 28.325 113.37 28.775C113.987 29.2083 114.687 29.425 115.47 29.425ZM130.064 28.875V17.625H132.739V28.875H130.064ZM125.639 24.5V22H137.164V24.5H125.639Z" fill="#0078FE"/>
<path d="M79.5696 60.2C78.4763 60.2 77.4296 60.0467 76.4296 59.74C75.4296 59.42 74.6363 59.0133 74.0496 58.52L74.9496 56.5C75.5096 56.94 76.2029 57.3067 77.0296 57.6C77.8563 57.8933 78.7029 58.04 79.5696 58.04C80.3029 58.04 80.8963 57.96 81.3496 57.8C81.8029 57.64 82.1363 57.4267 82.3496 57.16C82.5629 56.88 82.6696 56.5667 82.6696 56.22C82.6696 55.7933 82.5163 55.4533 82.2096 55.2C81.9029 54.9333 81.5029 54.7267 81.0096 54.58C80.5296 54.42 79.9896 54.2733 79.3896 54.14C78.8029 54.0067 78.2096 53.8533 77.6096 53.68C77.0229 53.4933 76.4829 53.26 75.9896 52.98C75.5096 52.6867 75.1163 52.3 74.8096 51.82C74.5029 51.34 74.3496 50.7267 74.3496 49.98C74.3496 49.22 74.5496 48.5267 74.9496 47.9C75.3629 47.26 75.9829 46.7533 76.8096 46.38C77.6496 45.9933 78.7096 45.8 79.9896 45.8C80.8296 45.8 81.6629 45.9067 82.4896 46.12C83.3163 46.3333 84.0363 46.64 84.6496 47.04L83.8296 49.06C83.2029 48.6867 82.5563 48.4133 81.8896 48.24C81.2229 48.0533 80.5829 47.96 79.9696 47.96C79.2496 47.96 78.6629 48.0467 78.2096 48.22C77.7696 48.3933 77.4429 48.62 77.2296 48.9C77.0296 49.18 76.9296 49.5 76.9296 49.86C76.9296 50.2867 77.0763 50.6333 77.3696 50.9C77.6763 51.1533 78.0696 51.3533 78.5496 51.5C79.0429 51.6467 79.5896 51.7933 80.1896 51.94C80.7896 52.0733 81.3829 52.2267 81.9696 52.4C82.5696 52.5733 83.1096 52.8 83.5896 53.08C84.0829 53.36 84.4763 53.74 84.7696 54.22C85.0763 54.7 85.2296 55.3067 85.2296 56.04C85.2296 56.7867 85.0229 57.48 84.6096 58.12C84.2096 58.7467 83.5896 59.2533 82.7496 59.64C81.9096 60.0133 80.8496 60.2 79.5696 60.2ZM91.5877 60.14C90.4144 60.14 89.5077 59.84 88.8677 59.24C88.2277 58.6267 87.9077 57.7267 87.9077 56.54V46.96H90.4077V56.48C90.4077 56.9867 90.5344 57.38 90.7877 57.66C91.0544 57.94 91.4211 58.08 91.8877 58.08C92.4477 58.08 92.9144 57.9333 93.2877 57.64L93.9877 59.42C93.6944 59.66 93.3344 59.84 92.9077 59.96C92.4811 60.08 92.0411 60.14 91.5877 60.14ZM86.1477 51.4V49.4H93.2677V51.4H86.1477ZM100.564 60.14C99.6576 60.14 98.8576 59.9733 98.1643 59.64C97.471 59.2933 96.931 58.7733 96.5443 58.08C96.1576 57.3733 95.9643 56.4867 95.9643 55.42V49.32H98.4643V55.08C98.4643 56.04 98.6776 56.76 99.1043 57.24C99.5443 57.7067 100.164 57.94 100.964 57.94C101.551 57.94 102.058 57.82 102.484 57.58C102.924 57.34 103.264 56.98 103.504 56.5C103.758 56.02 103.884 55.4267 103.884 54.72V49.32H106.384V60H104.004V57.12L104.424 58C104.064 58.6933 103.538 59.2267 102.844 59.6C102.151 59.96 101.391 60.14 100.564 60.14ZM114.178 60.14C113.151 60.14 112.224 59.9133 111.398 59.46C110.584 58.9933 109.944 58.3533 109.478 57.54C109.011 56.7267 108.778 55.7667 108.778 54.66C108.778 53.5533 109.011 52.5933 109.478 51.78C109.944 50.9667 110.584 50.3333 111.398 49.88C112.224 49.4267 113.151 49.2 114.178 49.2C115.071 49.2 115.871 49.4 116.578 49.8C117.284 50.1867 117.844 50.78 118.258 51.58C118.671 52.38 118.878 53.4067 118.878 54.66C118.878 55.9 118.678 56.9267 118.278 57.74C117.878 58.54 117.324 59.14 116.618 59.54C115.911 59.94 115.098 60.14 114.178 60.14ZM114.478 58C115.078 58 115.611 57.8667 116.078 57.6C116.558 57.3333 116.938 56.9467 117.218 56.44C117.511 55.9333 117.658 55.34 117.658 54.66C117.658 53.9667 117.511 53.3733 117.218 52.88C116.938 52.3733 116.558 51.9867 116.078 51.72C115.611 51.4533 115.078 51.32 114.478 51.32C113.878 51.32 113.338 51.4533 112.858 51.72C112.391 51.9867 112.011 52.3733 111.718 52.88C111.438 53.3733 111.298 53.9667 111.298 54.66C111.298 55.34 111.438 55.9333 111.718 56.44C112.011 56.9467 112.391 57.3333 112.858 57.6C113.338 57.8667 113.878 58 114.478 58ZM117.718 60V57.48L117.818 54.64L117.618 51.8V45.16H120.098V60H117.718ZM128.408 60.14C127.221 60.14 126.181 59.9067 125.288 59.44C124.408 58.96 123.721 58.3067 123.228 57.48C122.748 56.6533 122.508 55.7133 122.508 54.66C122.508 53.5933 122.741 52.6533 123.208 51.84C123.688 51.0133 124.341 50.3667 125.168 49.9C126.008 49.4333 126.961 49.2 128.028 49.2C129.068 49.2 129.995 49.4267 130.808 49.88C131.621 50.3333 132.261 50.9733 132.728 51.8C133.195 52.6267 133.428 53.6 133.428 54.72C133.428 54.8267 133.421 54.9467 133.408 55.08C133.408 55.2133 133.401 55.34 133.388 55.46H124.488V53.8H132.068L131.088 54.32C131.101 53.7067 130.975 53.1667 130.708 52.7C130.441 52.2333 130.075 51.8667 129.608 51.6C129.155 51.3333 128.628 51.2 128.028 51.2C127.415 51.2 126.875 51.3333 126.408 51.6C125.955 51.8667 125.595 52.24 125.328 52.72C125.075 53.1867 124.948 53.74 124.948 54.38V54.78C124.948 55.42 125.095 55.9867 125.388 56.48C125.681 56.9733 126.095 57.3533 126.628 57.62C127.161 57.8867 127.775 58.02 128.468 58.02C129.068 58.02 129.608 57.9267 130.088 57.74C130.568 57.5533 130.995 57.26 131.368 56.86L132.708 58.4C132.228 58.96 131.621 59.3933 130.888 59.7C130.168 59.9933 129.341 60.14 128.408 60.14ZM141.889 49.2C142.743 49.2 143.503 49.3667 144.169 49.7C144.849 50.0333 145.383 50.5467 145.769 51.24C146.156 51.92 146.349 52.8 146.349 53.88V60H143.849V54.2C143.849 53.2533 143.623 52.5467 143.169 52.08C142.729 51.6133 142.109 51.38 141.309 51.38C140.723 51.38 140.203 51.5 139.749 51.74C139.296 51.98 138.943 52.34 138.689 52.82C138.449 53.2867 138.329 53.88 138.329 54.6V60H135.829V49.32H138.209V52.2L137.789 51.32C138.163 50.64 138.703 50.12 139.409 49.76C140.129 49.3867 140.956 49.2 141.889 49.2ZM153.541 60.14C152.368 60.14 151.461 59.84 150.821 59.24C150.181 58.6267 149.861 57.7267 149.861 56.54V46.96H152.361V56.48C152.361 56.9867 152.488 57.38 152.741 57.66C153.008 57.94 153.374 58.08 153.841 58.08C154.401 58.08 154.868 57.9333 155.241 57.64L155.941 59.42C155.648 59.66 155.288 59.84 154.861 59.96C154.434 60.08 153.994 60.14 153.541 60.14ZM148.101 51.4V49.4H155.221V51.4H148.101ZM161.297 60.14C160.404 60.14 159.544 60.0267 158.717 59.8C157.904 59.56 157.257 59.2733 156.777 58.94L157.737 57.04C158.217 57.3467 158.791 57.6 159.457 57.8C160.124 58 160.791 58.1 161.457 58.1C162.244 58.1 162.811 57.9933 163.157 57.78C163.517 57.5667 163.697 57.28 163.697 56.92C163.697 56.6267 163.577 56.4067 163.337 56.26C163.097 56.1 162.784 55.98 162.397 55.9C162.011 55.82 161.577 55.7467 161.097 55.68C160.631 55.6133 160.157 55.5267 159.677 55.42C159.211 55.3 158.784 55.1333 158.397 54.92C158.011 54.6933 157.697 54.3933 157.457 54.02C157.217 53.6467 157.097 53.1533 157.097 52.54C157.097 51.86 157.291 51.2733 157.677 50.78C158.064 50.2733 158.604 49.8867 159.297 49.62C160.004 49.34 160.837 49.2 161.797 49.2C162.517 49.2 163.244 49.28 163.977 49.44C164.711 49.6 165.317 49.8267 165.797 50.12L164.837 52.02C164.331 51.7133 163.817 51.5067 163.297 51.4C162.791 51.28 162.284 51.22 161.777 51.22C161.017 51.22 160.451 51.3333 160.077 51.56C159.717 51.7867 159.537 52.0733 159.537 52.42C159.537 52.74 159.657 52.98 159.897 53.14C160.137 53.3 160.451 53.4267 160.837 53.52C161.224 53.6133 161.651 53.6933 162.117 53.76C162.597 53.8133 163.071 53.9 163.537 54.02C164.004 54.14 164.431 54.3067 164.817 54.52C165.217 54.72 165.537 55.0067 165.777 55.38C166.017 55.7533 166.137 56.24 166.137 56.84C166.137 57.5067 165.937 58.0867 165.537 58.58C165.151 59.0733 164.597 59.46 163.877 59.74C163.157 60.0067 162.297 60.14 161.297 60.14Z" fill="white" fill-opacity="0.7"/>
<defs>
<filter id="filter0_b_107_48" x="-40" y="-40" width="263" height="157" filterUnits="userSpaceOnUse" color-interpolation-filters="sRGB">
<feFlood flood-opacity="0" result="BackgroundImageFix"/>
<feGaussianBlur in="BackgroundImageFix" stdDeviation="20"/>
<feComposite in2="SourceAlpha" operator="in" result="effect1_backgroundBlur_107_48"/>
<feBlend mode="normal" in="SourceGraphic" in2="effect1_backgroundBlur_107_48" result="shape"/>
</filter>
<filter id="filter1_b_107_48" x="-91" y="-92" width="256" height="256" filterUnits="userSpaceOnUse" color-interpolation-filters="sRGB">
<feFlood flood-opacity="0" result="BackgroundImageFix"/>
<feGaussianBlur in="BackgroundImageFix" stdDeviation="50"/>
<feComposite in2="SourceAlpha" operator="in" result="effect1_backgroundBlur_107_48"/>
<feBlend mode="normal" in="SourceGraphic" in2="effect1_backgroundBlur_107_48" result="shape"/>
</filter>
</defs>
</svg>
