<svg width="246" height="97" viewBox="0 0 100 100" fill="none" xmlns="http://www.w3.org/2000/svg">
<g filter="url(#filter0_b_107_56)">
<path d="M0 20C0 8.95431 8.9543 0 20 0H226C237.046 0 246 8.95431 246 20V77C246 88.0457 237.046 97 226 97H20C8.9543 97 0 88.0457 0 77V20Z" fill="black" fill-opacity="0.05"/>
</g>
<path d="M86.2301 43L92.5301 29H95.0901L101.41 43H98.6901L93.2701 30.38H94.3101L88.9101 43H86.2301ZM89.1301 39.76L89.8301 37.72H97.3901L98.0901 39.76H89.1301ZM107.373 43.14C106.346 43.14 105.42 42.9133 104.593 42.46C103.78 41.9933 103.14 41.3533 102.673 40.54C102.206 39.7267 101.973 38.7667 101.973 37.66C101.973 36.5533 102.206 35.5933 102.673 34.78C103.14 33.9667 103.78 33.3333 104.593 32.88C105.42 32.4267 106.346 32.2 107.373 32.2C108.266 32.2 109.066 32.4 109.773 32.8C110.48 33.1867 111.04 33.78 111.453 34.58C111.866 35.38 112.073 36.4067 112.073 37.66C112.073 38.9 111.873 39.9267 111.473 40.74C111.073 41.54 110.52 42.14 109.813 42.54C109.106 42.94 108.293 43.14 107.373 43.14ZM107.673 41C108.273 41 108.806 40.8667 109.273 40.6C109.753 40.3333 110.133 39.9467 110.413 39.44C110.706 38.9333 110.853 38.34 110.853 37.66C110.853 36.9667 110.706 36.3733 110.413 35.88C110.133 35.3733 109.753 34.9867 109.273 34.72C108.806 34.4533 108.273 34.32 107.673 34.32C107.073 34.32 106.533 34.4533 106.053 34.72C105.586 34.9867 105.206 35.3733 104.913 35.88C104.633 36.3733 104.493 36.9667 104.493 37.66C104.493 38.34 104.633 38.9333 104.913 39.44C105.206 39.9467 105.586 40.3333 106.053 40.6C106.533 40.8667 107.073 41 107.673 41ZM110.913 43V40.48L111.013 37.64L110.813 34.8V28.16H113.293V43H110.913ZM119.423 43L114.843 32.32H117.443L121.383 41.74H120.103L124.183 32.32H126.583L122.003 43H119.423ZM134.394 43V40.84L134.254 40.38V36.6C134.254 35.8667 134.034 35.3 133.594 34.9C133.154 34.4867 132.487 34.28 131.594 34.28C130.994 34.28 130.4 34.3733 129.814 34.56C129.24 34.7467 128.754 35.0067 128.354 35.34L127.374 33.52C127.947 33.08 128.627 32.7533 129.414 32.54C130.214 32.3133 131.04 32.2 131.894 32.2C133.44 32.2 134.634 32.5733 135.474 33.32C136.327 34.0533 136.754 35.1933 136.754 36.74V43H134.394ZM131.034 43.14C130.234 43.14 129.534 43.0067 128.934 42.74C128.334 42.46 127.867 42.08 127.534 41.6C127.214 41.1067 127.054 40.5533 127.054 39.94C127.054 39.34 127.194 38.8 127.474 38.32C127.767 37.84 128.24 37.46 128.894 37.18C129.547 36.9 130.414 36.76 131.494 36.76H134.594V38.42H131.674C130.82 38.42 130.247 38.56 129.954 38.84C129.66 39.1067 129.514 39.44 129.514 39.84C129.514 40.2933 129.694 40.6533 130.054 40.92C130.414 41.1867 130.914 41.32 131.554 41.32C132.167 41.32 132.714 41.18 133.194 40.9C133.687 40.62 134.04 40.2067 134.254 39.66L134.674 41.16C134.434 41.7867 134 42.2733 133.374 42.62C132.76 42.9667 131.98 43.14 131.034 43.14ZM146.022 32.2C146.876 32.2 147.636 32.3667 148.302 32.7C148.982 33.0333 149.516 33.5467 149.902 34.24C150.289 34.92 150.482 35.8 150.482 36.88V43H147.982V37.2C147.982 36.2533 147.756 35.5467 147.302 35.08C146.862 34.6133 146.242 34.38 145.442 34.38C144.856 34.38 144.336 34.5 143.882 34.74C143.429 34.98 143.076 35.34 142.822 35.82C142.582 36.2867 142.462 36.88 142.462 37.6V43H139.962V32.32H142.342V35.2L141.922 34.32C142.296 33.64 142.836 33.12 143.542 32.76C144.262 32.3867 145.089 32.2 146.022 32.2ZM158.573 43.14C157.453 43.14 156.453 42.9067 155.573 42.44C154.707 41.96 154.027 41.3067 153.533 40.48C153.04 39.6533 152.793 38.7133 152.793 37.66C152.793 36.5933 153.04 35.6533 153.533 34.84C154.027 34.0133 154.707 33.3667 155.573 32.9C156.453 32.4333 157.453 32.2 158.573 32.2C159.613 32.2 160.527 32.4133 161.313 32.84C162.113 33.2533 162.72 33.8667 163.133 34.68L161.213 35.8C160.893 35.2933 160.5 34.92 160.033 34.68C159.58 34.44 159.087 34.32 158.553 34.32C157.94 34.32 157.387 34.4533 156.893 34.72C156.4 34.9867 156.013 35.3733 155.733 35.88C155.453 36.3733 155.313 36.9667 155.313 37.66C155.313 38.3533 155.453 38.9533 155.733 39.46C156.013 39.9533 156.4 40.3333 156.893 40.6C157.387 40.8667 157.94 41 158.553 41C159.087 41 159.58 40.88 160.033 40.64C160.5 40.4 160.893 40.0267 161.213 39.52L163.133 40.64C162.72 41.44 162.113 42.06 161.313 42.5C160.527 42.9267 159.613 43.14 158.573 43.14ZM170.158 43.14C168.971 43.14 167.931 42.9067 167.038 42.44C166.158 41.96 165.471 41.3067 164.978 40.48C164.498 39.6533 164.258 38.7133 164.258 37.66C164.258 36.5933 164.491 35.6533 164.958 34.84C165.438 34.0133 166.091 33.3667 166.918 32.9C167.758 32.4333 168.711 32.2 169.778 32.2C170.818 32.2 171.745 32.4267 172.558 32.88C173.371 33.3333 174.011 33.9733 174.478 34.8C174.945 35.6267 175.178 36.6 175.178 37.72C175.178 37.8267 175.171 37.9467 175.158 38.08C175.158 38.2133 175.151 38.34 175.138 38.46H166.238V36.8H173.818L172.838 37.32C172.851 36.7067 172.725 36.1667 172.458 35.7C172.191 35.2333 171.825 34.8667 171.358 34.6C170.905 34.3333 170.378 34.2 169.778 34.2C169.165 34.2 168.625 34.3333 168.158 34.6C167.705 34.8667 167.345 35.24 167.078 35.72C166.825 36.1867 166.698 36.74 166.698 37.38V37.78C166.698 38.42 166.845 38.9867 167.138 39.48C167.431 39.9733 167.845 40.3533 168.378 40.62C168.911 40.8867 169.525 41.02 170.218 41.02C170.818 41.02 171.358 40.9267 171.838 40.74C172.318 40.5533 172.745 40.26 173.118 39.86L174.458 41.4C173.978 41.96 173.371 42.3933 172.638 42.7C171.918 42.9933 171.091 43.14 170.158 43.14ZM182.099 43.14C181.073 43.14 180.146 42.9133 179.319 42.46C178.506 41.9933 177.866 41.3533 177.399 40.54C176.933 39.7267 176.699 38.7667 176.699 37.66C176.699 36.5533 176.933 35.5933 177.399 34.78C177.866 33.9667 178.506 33.3333 179.319 32.88C180.146 32.4267 181.073 32.2 182.099 32.2C182.993 32.2 183.793 32.4 184.499 32.8C185.206 33.1867 185.766 33.78 186.179 34.58C186.593 35.38 186.799 36.4067 186.799 37.66C186.799 38.9 186.599 39.9267 186.199 40.74C185.799 41.54 185.246 42.14 184.539 42.54C183.833 42.94 183.019 43.14 182.099 43.14ZM182.399 41C182.999 41 183.533 40.8667 183.999 40.6C184.479 40.3333 184.859 39.9467 185.139 39.44C185.433 38.9333 185.579 38.34 185.579 37.66C185.579 36.9667 185.433 36.3733 185.139 35.88C184.859 35.3733 184.479 34.9867 183.999 34.72C183.533 34.4533 182.999 34.32 182.399 34.32C181.799 34.32 181.259 34.4533 180.779 34.72C180.313 34.9867 179.933 35.3733 179.639 35.88C179.359 36.3733 179.219 36.9667 179.219 37.66C179.219 38.34 179.359 38.9333 179.639 39.44C179.933 39.9467 180.313 40.3333 180.779 40.6C181.259 40.8667 181.799 41 182.399 41ZM185.639 43V40.48L185.739 37.64L185.539 34.8V28.16H188.019V43H185.639Z" fill="white"/>
<path d="M89.1109 61.708H93.9969V63.248H89.1109V61.708ZM89.2649 67H87.4449V57.2H94.5989V58.726H89.2649V67ZM100.551 67V65.488L100.453 65.166V62.52C100.453 62.0067 100.299 61.61 99.9909 61.33C99.6829 61.0407 99.2162 60.896 98.5909 60.896C98.1709 60.896 97.7555 60.9613 97.3449 61.092C96.9435 61.2227 96.6029 61.4047 96.3229 61.638L95.6369 60.364C96.0382 60.056 96.5142 59.8273 97.0649 59.678C97.6249 59.5193 98.2035 59.44 98.8009 59.44C99.8835 59.44 100.719 59.7013 101.307 60.224C101.904 60.7373 102.203 61.5353 102.203 62.618V67H100.551ZM98.1989 67.098C97.6389 67.098 97.1489 67.0047 96.7289 66.818C96.3089 66.622 95.9822 66.356 95.7489 66.02C95.5249 65.6747 95.4129 65.2873 95.4129 64.858C95.4129 64.438 95.5109 64.06 95.7069 63.724C95.9122 63.388 96.2435 63.122 96.7009 62.926C97.1582 62.73 97.7649 62.632 98.5209 62.632H100.691V63.794H98.6469C98.0495 63.794 97.6482 63.892 97.4429 64.088C97.2375 64.2747 97.1349 64.508 97.1349 64.788C97.1349 65.1053 97.2609 65.3573 97.5129 65.544C97.7649 65.7307 98.1149 65.824 98.5629 65.824C98.9922 65.824 99.3749 65.726 99.7109 65.53C100.056 65.334 100.304 65.0447 100.453 64.662L100.747 65.712C100.579 66.1507 100.276 66.4913 99.8369 66.734C99.4075 66.9767 98.8615 67.098 98.1989 67.098ZM107.892 67.098C107.108 67.098 106.408 66.9347 105.792 66.608C105.186 66.272 104.71 65.8147 104.364 65.236C104.019 64.6573 103.846 63.9993 103.846 63.262C103.846 62.5153 104.019 61.8573 104.364 61.288C104.71 60.7093 105.186 60.2567 105.792 59.93C106.408 59.6033 107.108 59.44 107.892 59.44C108.62 59.44 109.26 59.5893 109.81 59.888C110.37 60.1773 110.795 60.6067 111.084 61.176L109.74 61.96C109.516 61.6053 109.241 61.344 108.914 61.176C108.597 61.008 108.252 60.924 107.878 60.924C107.449 60.924 107.062 61.0173 106.716 61.204C106.371 61.3907 106.1 61.6613 105.904 62.016C105.708 62.3613 105.61 62.7767 105.61 63.262C105.61 63.7473 105.708 64.1673 105.904 64.522C106.1 64.8673 106.371 65.1333 106.716 65.32C107.062 65.5067 107.449 65.6 107.878 65.6C108.252 65.6 108.597 65.516 108.914 65.348C109.241 65.18 109.516 64.9187 109.74 64.564L111.084 65.348C110.795 65.908 110.37 66.342 109.81 66.65C109.26 66.9487 108.62 67.098 107.892 67.098ZM112.529 67V59.524H114.279V67H112.529ZM113.411 58.292C113.084 58.292 112.814 58.1893 112.599 57.984C112.394 57.7787 112.291 57.5313 112.291 57.242C112.291 56.9433 112.394 56.696 112.599 56.5C112.814 56.2947 113.084 56.192 113.411 56.192C113.738 56.192 114.004 56.29 114.209 56.486C114.424 56.6727 114.531 56.9107 114.531 57.2C114.531 57.508 114.428 57.7693 114.223 57.984C114.018 58.1893 113.747 58.292 113.411 58.292ZM116.576 67V56.612H118.326V67H116.576ZM120.623 67V59.524H122.373V67H120.623ZM121.505 58.292C121.178 58.292 120.907 58.1893 120.693 57.984C120.487 57.7787 120.385 57.5313 120.385 57.242C120.385 56.9433 120.487 56.696 120.693 56.5C120.907 56.2947 121.178 56.192 121.505 56.192C121.831 56.192 122.097 56.29 122.303 56.486C122.517 56.6727 122.625 56.9107 122.625 57.2C122.625 57.508 122.522 57.7693 122.317 57.984C122.111 58.1893 121.841 58.292 121.505 58.292ZM127.483 67.098C126.662 67.098 126.027 66.888 125.579 66.468C125.131 66.0387 124.907 65.4087 124.907 64.578V57.872H126.657V64.536C126.657 64.8907 126.746 65.166 126.923 65.362C127.11 65.558 127.367 65.656 127.693 65.656C128.085 65.656 128.412 65.5533 128.673 65.348L129.163 66.594C128.958 66.762 128.706 66.888 128.407 66.972C128.109 67.056 127.801 67.098 127.483 67.098ZM123.675 60.98V59.58H128.659V60.98H123.675ZM131.082 69.814C130.718 69.814 130.354 69.7533 129.99 69.632C129.626 69.5107 129.323 69.3427 129.08 69.128L129.78 67.84C129.958 67.9987 130.158 68.1247 130.382 68.218C130.606 68.3113 130.835 68.358 131.068 68.358C131.386 68.358 131.642 68.2787 131.838 68.12C132.034 67.9613 132.216 67.6953 132.384 67.322L132.818 66.342L132.958 66.132L135.786 59.524H137.466L133.966 67.602C133.733 68.162 133.472 68.6053 133.182 68.932C132.902 69.2587 132.585 69.4873 132.23 69.618C131.885 69.7487 131.502 69.814 131.082 69.814ZM132.622 67.266L129.248 59.524H131.068L133.812 65.978L132.622 67.266ZM145.425 67.14C144.744 67.14 144.133 67.028 143.591 66.804C143.05 66.58 142.625 66.272 142.317 65.88C142.009 65.488 141.855 65.0353 141.855 64.522C141.855 64.0553 141.958 63.6353 142.163 63.262C142.369 62.8887 142.695 62.534 143.143 62.198C143.591 61.8527 144.165 61.5073 144.865 61.162C145.416 60.8913 145.845 60.6533 146.153 60.448C146.471 60.2427 146.69 60.0467 146.811 59.86C146.942 59.6733 147.007 59.4773 147.007 59.272C147.007 58.992 146.909 58.768 146.713 58.6C146.517 58.4227 146.237 58.334 145.873 58.334C145.481 58.334 145.173 58.432 144.949 58.628C144.735 58.8147 144.627 59.062 144.627 59.37C144.627 59.5287 144.655 59.6827 144.711 59.832C144.777 59.9813 144.889 60.1493 145.047 60.336C145.206 60.5227 145.435 60.7607 145.733 61.05L150.913 66.02L149.947 67.154L144.347 61.778C144.03 61.47 143.773 61.1853 143.577 60.924C143.381 60.6627 143.241 60.4107 143.157 60.168C143.073 59.916 143.031 59.6593 143.031 59.398C143.031 58.9407 143.148 58.5393 143.381 58.194C143.615 57.8393 143.946 57.5687 144.375 57.382C144.805 57.186 145.304 57.088 145.873 57.088C146.405 57.088 146.863 57.1767 147.245 57.354C147.637 57.522 147.941 57.7693 148.155 58.096C148.379 58.4133 148.491 58.796 148.491 59.244C148.491 59.636 148.393 60 148.197 60.336C148.001 60.6627 147.693 60.9753 147.273 61.274C146.863 61.5727 146.312 61.8853 145.621 62.212C145.108 62.464 144.702 62.702 144.403 62.926C144.105 63.15 143.89 63.374 143.759 63.598C143.629 63.822 143.563 64.0693 143.563 64.34C143.563 64.6107 143.643 64.8487 143.801 65.054C143.969 65.2593 144.203 65.4227 144.501 65.544C144.8 65.656 145.15 65.712 145.551 65.712C146.149 65.712 146.69 65.5813 147.175 65.32C147.67 65.0493 148.085 64.648 148.421 64.116C148.757 63.584 149 62.926 149.149 62.142L150.563 62.604C150.367 63.5467 150.027 64.3587 149.541 65.04C149.065 65.712 148.477 66.23 147.777 66.594C147.077 66.958 146.293 67.14 145.425 67.14ZM158.017 61.708H162.903V63.248H158.017V61.708ZM158.171 67H156.351V57.2H163.505V58.726H158.171V67ZM168.406 67.098C167.575 67.098 166.847 66.9347 166.222 66.608C165.606 66.272 165.125 65.8147 164.78 65.236C164.444 64.6573 164.276 63.9993 164.276 63.262C164.276 62.5153 164.439 61.8573 164.766 61.288C165.102 60.7093 165.559 60.2567 166.138 59.93C166.726 59.6033 167.393 59.44 168.14 59.44C168.868 59.44 169.517 59.5987 170.086 59.916C170.655 60.2333 171.103 60.6813 171.43 61.26C171.757 61.8387 171.92 62.52 171.92 63.304C171.92 63.3787 171.915 63.4627 171.906 63.556C171.906 63.6493 171.901 63.738 171.892 63.822H165.662V62.66H170.968L170.282 63.024C170.291 62.5947 170.203 62.2167 170.016 61.89C169.829 61.5633 169.573 61.3067 169.246 61.12C168.929 60.9333 168.56 60.84 168.14 60.84C167.711 60.84 167.333 60.9333 167.006 61.12C166.689 61.3067 166.437 61.568 166.25 61.904C166.073 62.2307 165.984 62.618 165.984 63.066V63.346C165.984 63.794 166.087 64.1907 166.292 64.536C166.497 64.8813 166.787 65.1473 167.16 65.334C167.533 65.5207 167.963 65.614 168.448 65.614C168.868 65.614 169.246 65.5487 169.582 65.418C169.918 65.2873 170.217 65.082 170.478 64.802L171.416 65.88C171.08 66.272 170.655 66.5753 170.142 66.79C169.638 66.9953 169.059 67.098 168.406 67.098ZM178.002 67V65.488L177.904 65.166V62.52C177.904 62.0067 177.75 61.61 177.442 61.33C177.134 61.0407 176.667 60.896 176.042 60.896C175.622 60.896 175.207 60.9613 174.796 61.092C174.395 61.2227 174.054 61.4047 173.774 61.638L173.088 60.364C173.489 60.056 173.965 59.8273 174.516 59.678C175.076 59.5193 175.655 59.44 176.252 59.44C177.335 59.44 178.17 59.7013 178.758 60.224C179.355 60.7373 179.654 61.5353 179.654 62.618V67H178.002ZM175.65 67.098C175.09 67.098 174.6 67.0047 174.18 66.818C173.76 66.622 173.433 66.356 173.2 66.02C172.976 65.6747 172.864 65.2873 172.864 64.858C172.864 64.438 172.962 64.06 173.158 63.724C173.363 63.388 173.695 63.122 174.152 62.926C174.609 62.73 175.216 62.632 175.972 62.632H178.142V63.794H176.098C175.501 63.794 175.099 63.892 174.894 64.088C174.689 64.2747 174.586 64.508 174.586 64.788C174.586 65.1053 174.712 65.3573 174.964 65.544C175.216 65.7307 175.566 65.824 176.014 65.824C176.443 65.824 176.826 65.726 177.162 65.53C177.507 65.334 177.755 65.0447 177.904 64.662L178.198 65.712C178.03 66.1507 177.727 66.4913 177.288 66.734C176.859 66.9767 176.313 67.098 175.65 67.098ZM184.714 67.098C183.893 67.098 183.258 66.888 182.81 66.468C182.362 66.0387 182.138 65.4087 182.138 64.578V57.872H183.888V64.536C183.888 64.8907 183.977 65.166 184.154 65.362C184.341 65.558 184.597 65.656 184.924 65.656C185.316 65.656 185.643 65.5533 185.904 65.348L186.394 66.594C186.189 66.762 185.937 66.888 185.638 66.972C185.339 67.056 185.031 67.098 184.714 67.098ZM180.906 60.98V59.58H185.89V60.98H180.906ZM190.998 67.098C190.363 67.098 189.803 66.9813 189.318 66.748C188.832 66.5053 188.454 66.1413 188.184 65.656C187.913 65.1613 187.778 64.5407 187.778 63.794V59.524H189.528V63.556C189.528 64.228 189.677 64.732 189.976 65.068C190.284 65.3947 190.718 65.558 191.278 65.558C191.688 65.558 192.043 65.474 192.342 65.306C192.65 65.138 192.888 64.886 193.056 64.55C193.233 64.214 193.322 63.7987 193.322 63.304V59.524H195.072V67H193.406V64.984L193.7 65.6C193.448 66.0853 193.079 66.4587 192.594 66.72C192.108 66.972 191.576 67.098 190.998 67.098ZM197.363 67V59.524H199.029V61.582L198.833 60.98C199.057 60.476 199.407 60.0933 199.883 59.832C200.368 59.5707 200.97 59.44 201.689 59.44V61.106C201.614 61.0873 201.544 61.078 201.479 61.078C201.414 61.0687 201.348 61.064 201.283 61.064C200.62 61.064 200.093 61.26 199.701 61.652C199.309 62.0347 199.113 62.6087 199.113 63.374V67H197.363ZM206.619 67.098C205.788 67.098 205.06 66.9347 204.435 66.608C203.819 66.272 203.338 65.8147 202.993 65.236C202.657 64.6573 202.489 63.9993 202.489 63.262C202.489 62.5153 202.652 61.8573 202.979 61.288C203.315 60.7093 203.772 60.2567 204.351 59.93C204.939 59.6033 205.606 59.44 206.353 59.44C207.081 59.44 207.73 59.5987 208.299 59.916C208.868 60.2333 209.316 60.6813 209.643 61.26C209.97 61.8387 210.133 62.52 210.133 63.304C210.133 63.3787 210.128 63.4627 210.119 63.556C210.119 63.6493 210.114 63.738 210.105 63.822H203.875V62.66H209.181L208.495 63.024C208.504 62.5947 208.416 62.2167 208.229 61.89C208.042 61.5633 207.786 61.3067 207.459 61.12C207.142 60.9333 206.773 60.84 206.353 60.84C205.924 60.84 205.546 60.9333 205.219 61.12C204.902 61.3067 204.65 61.568 204.463 61.904C204.286 62.2307 204.197 62.618 204.197 63.066V63.346C204.197 63.794 204.3 64.1907 204.505 64.536C204.71 64.8813 205 65.1473 205.373 65.334C205.746 65.5207 206.176 65.614 206.661 65.614C207.081 65.614 207.459 65.5487 207.795 65.418C208.131 65.2873 208.43 65.082 208.691 64.802L209.629 65.88C209.293 66.272 208.868 66.5753 208.355 66.79C207.851 66.9953 207.272 67.098 206.619 67.098ZM214.124 67.098C213.499 67.098 212.897 67.0187 212.318 66.86C211.749 66.692 211.296 66.4913 210.96 66.258L211.632 64.928C211.968 65.1427 212.369 65.32 212.836 65.46C213.303 65.6 213.769 65.67 214.236 65.67C214.787 65.67 215.183 65.5953 215.426 65.446C215.678 65.2967 215.804 65.096 215.804 64.844C215.804 64.6387 215.72 64.4847 215.552 64.382C215.384 64.27 215.165 64.186 214.894 64.13C214.623 64.074 214.32 64.0227 213.984 63.976C213.657 63.9293 213.326 63.8687 212.99 63.794C212.663 63.71 212.365 63.5933 212.094 63.444C211.823 63.2853 211.604 63.0753 211.436 62.814C211.268 62.5527 211.184 62.2073 211.184 61.778C211.184 61.302 211.319 60.8913 211.59 60.546C211.861 60.1913 212.239 59.9207 212.724 59.734C213.219 59.538 213.802 59.44 214.474 59.44C214.978 59.44 215.487 59.496 216 59.608C216.513 59.72 216.938 59.8787 217.274 60.084L216.602 61.414C216.247 61.1993 215.888 61.0547 215.524 60.98C215.169 60.896 214.815 60.854 214.46 60.854C213.928 60.854 213.531 60.9333 213.27 61.092C213.018 61.2507 212.892 61.4513 212.892 61.694C212.892 61.918 212.976 62.086 213.144 62.198C213.312 62.31 213.531 62.3987 213.802 62.464C214.073 62.5293 214.371 62.5853 214.698 62.632C215.034 62.6693 215.365 62.73 215.692 62.814C216.019 62.898 216.317 63.0147 216.588 63.164C216.868 63.304 217.092 63.5047 217.26 63.766C217.428 64.0273 217.512 64.368 217.512 64.788C217.512 65.2547 217.372 65.6607 217.092 66.006C216.821 66.3513 216.434 66.622 215.93 66.818C215.426 67.0047 214.824 67.098 214.124 67.098Z" fill="white" fill-opacity="0.7"/>
<rect x="17.5" y="21.5" width="54" height="54" rx="19.5" fill="#000936" fill-opacity="0.1" stroke="#0099FF"/>
<path d="M46.7821 52.4056L43.7851 58.2291L41.0042 49.2232L39.0123 53.0935H33.1868C33.7662 54.271 34.5483 55.4243 35.5408 56.5653C37.8652 59.2366 41.0013 61.0542 43.478 62.6623L43.9995 63L44.5209 62.6623C46.9994 61.0542 50.1355 59.2366 52.4582 56.5653C52.9242 56.0331 53.3583 55.4753 53.7582 54.8947H48.0631L46.7821 52.4056Z" fill="#45B4FF"/>
<path d="M41.4462 44.3385L44.2152 53.3433L46.7691 48.3603L49.1857 53.0755H54.7682C55.599 51.4038 56.0204 49.5668 55.9992 47.7091C55.9629 44.2135 53.0883 41.3691 49.5912 41.3691C46.8158 41.3691 44.9704 42.945 44 44.0824C43.0297 42.945 41.1843 41.3691 38.4089 41.3691C34.9118 41.3691 32.0372 44.2135 32.0009 47.7091C31.9862 48.9162 32.1601 50.1185 32.5166 51.2745H37.8914L41.4462 44.3385Z" fill="#0078FE"/>
<path d="M47.4286 36.3476C47.4286 38.1965 45.8935 39.6953 44 39.6953C42.1065 39.6953 40.5714 38.1965 40.5714 36.3476C40.5714 34.4988 42.1065 33 44 33C45.8935 33 47.4286 34.4988 47.4286 36.3476Z" fill="#0078FE"/>
<defs>
<filter id="filter0_b_107_56" x="-40" y="-40" width="326" height="177" filterUnits="userSpaceOnUse" color-interpolation-filters="sRGB">
<feFlood flood-opacity="0" result="BackgroundImageFix"/>
<feGaussianBlur in="BackgroundImageFix" stdDeviation="20"/>
<feComposite in2="SourceAlpha" operator="in" result="effect1_backgroundBlur_107_56"/>
<feBlend mode="normal" in="SourceGraphic" in2="effect1_backgroundBlur_107_56" result="shape"/>
</filter>
</defs>
</svg>
